<svg width="63" height="50" viewBox="0 0 63 50" fill="none" xmlns="http://www.w3.org/2000/svg">
<path d="M48.5769 7.9087L43.2896 8.22404L41.0635 8.35651L38.5207 8.25428L23.6163 7.6524L20.8848 7.54297L18.8992 7.69272L12.5017 8.1794L11.4477 8.12613L11.439 9.81945L11.2303 47.4757L11.2188 49.3577H19.3196L22.8416 48.8148L29.0721 49.3577L33.6769 49.0855L48.5769 49.3577L51.1011 49.1042L51.1097 48.5571L51.7577 9.73162L51.7807 8.33491L48.5769 7.9087Z" fill="#353472" stroke="#353472" stroke-width="0.841667" stroke-miterlimit="10"/>
<path d="M57.4016 10.7097L51.76 9.73202L48.215 9.11719L46.3359 48.091L51.1121 48.5575L52.1661 48.6597L56.3922 44.5474L57.5456 39.6776L57.8998 35.0095L58.0783 32.6739L58.1517 31.7135L58.3245 29.427L58.434 28.0058L58.5045 27.0655L58.6917 24.6148L58.9235 21.555L59.1064 19.1533L59.4995 13.9999L57.4016 10.7097Z" fill="#477BAE"/>
<path d="M13.6775 9.12439L13.1045 9.11719L11.1692 9.81986L5.91214 11.7263L3.66016 14.1525L3.83294 18.8322L4.00716 23.5104L4.06476 25.0612L4.09355 25.8503L4.15259 27.4269L4.25051 30.098L4.26779 30.5299L4.33546 32.3716L4.42906 34.8928L4.5241 37.4501L4.62344 40.1485L5.63569 46.3573L10.9604 47.4761L16.0174 48.5388L13.6775 9.12439Z" fill="#477BAE"/>
<path d="M43.2881 8.22471L43.0275 6.90432L43.0937 4.45073L41.6524 3.48456L37.8266 0L35.396 0.204466L32.9669 0.407492L30.5378 0.611957L26.5104 1.22247L23.249 1.22391L21.046 4.12819L18.7969 6.49107L18.8977 7.69338L19.0013 8.92018L19.2058 11.3507L20.532 10.9677L24.064 10.9418L23.5903 8.53572L23.6148 7.65307L23.6565 6.08358L25.8826 3.45L28.2887 2.97627L32.3377 2.63502L35.6005 2.63358L38.2341 4.85966L38.4385 7.28877L38.5192 8.25494L38.6416 9.71788L41.0937 9.78412L43.5012 9.31039L43.2881 8.22471Z" fill="#F39200"/>
<path d="M3.6389 32.4718L4.60507 32.3724L6.1688 32.2126L7.43736 31.8094L7.3812 31.0736L7.33655 30.4573L7.30632 30.0527L4.52156 30.0988L4.13566 30.106L2.6756 30.5279L0.269531 30.502L0.365993 31.7936L0.632389 32.7813L1.80447 32.3883L3.6389 32.4718Z" fill="#353472"/>
<path d="M3.61559 27.3113L4.42193 27.4264L5.02812 27.5143L6.1282 27.6741L7.05118 27.5344L7.08862 26.8001L7.13757 25.7821L6.13253 25.6367L4.94893 25.1946L4.33409 25.0607L1.27575 24.3926L0.305258 24.525L0.272143 25.1989L0.241893 25.8123L0 26.7886L2.04609 27.3559L3.61559 27.3113Z" fill="#353472"/>
<path d="M7.49817 34.3639L6.84589 34.3164L5.32393 34.8621L4.69758 34.8924L3.5111 34.95L0.796875 36.2056L1.16694 37.0594L1.24756 38.4403L2.93802 38.1149L4.7926 37.4496L5.95893 37.0306L6.96686 36.387L7.89559 36.3351L7.49817 34.3639Z" fill="#353472"/>
<path d="M58.7724 27.0886L60.4038 26.3758L62.8113 26.4003L62.5248 25.1289L62.4499 24.121L61.2346 23.9727L59.4607 24.7012L58.6889 24.6163L56.8905 24.419L55.6406 25.0929L55.6953 25.8301L55.7414 26.445L55.7717 26.851L58.5017 27.067L58.7724 27.0886Z" fill="#353472"/>
<path d="M62.7991 30.5489L62.8682 29.8621L61.0338 29.5467L59.4629 29.5914L58.321 29.4272L58.0504 29.3869L56.9488 29.2285L56.0258 29.3667L55.9884 30.1011L55.9395 31.1205L56.9647 31.5367L58.1295 31.708L58.1483 31.7138L60.6378 32.3574L62.7747 32.379L62.9993 31.685L62.7991 30.5489Z" fill="#353472"/>
<path d="M57.7542 22.0366L58.9205 21.5557L60.0797 21.0791L62.2827 20.6918L62.2957 19.799L61.832 18.457L60.1416 18.7824L59.1034 19.1539L57.1178 19.8667L56.0696 19.9704L55.1797 20.5636L55.5785 22.5363L56.4223 22.5636L57.7542 22.0366Z" fill="#353472"/>
<path d="M12.473 29.0542L9.70117 27.8073L10.5939 24.3054L10.3304 19.5019L13.9805 19.1348L16.0511 20.9807L15.6768 24.0506L14.4975 24.7201L16.0022 25.299L15.3557 28.5906L12.473 29.0542ZM13.8063 23.0441L13.9359 22.0131L13.2232 21.3752L12.2656 21.5423L12.5219 23.5236L13.8063 23.0441ZM13.7516 26.952L13.779 25.9858L12.3434 25.4617L12.0136 26.8886L12.7422 27.322L13.7516 26.952Z" fill="#F39200"/>
<path d="M21.0972 28.056L21.0684 26.0286L19.6127 25.0409L19.9367 27.7392L16.8308 28.5124L17.7192 24.5758L17.3708 21.0149L16.5918 19.5851L20.7733 18.4922L22.3917 20.0948L22.4436 23.3259L21.1131 24.1812L22.7042 24.7687L23.4342 27.9883L21.0972 28.056ZM20.7128 22.5196L20.7041 21.3086L19.964 20.7428L18.9129 21.4656L19.3578 23.2208L20.7128 22.5196Z" fill="#F39200"/>
<path d="M27.7004 27.875L25.3433 27.4604L23.9062 23.8505L24.1424 19.0211L27.6471 17.7871L30.1309 20.749L31.0107 24.7332L29.9164 27.3365L27.7004 27.875ZM28.8782 24.5863L28.3267 22.0866L27.2972 20.7807L26.3325 21.3393L26.7731 24.9017L28.0863 25.6994L28.8782 24.5863Z" fill="#F39200"/>
<path d="M31.808 27.4613L32.4069 24.593L31.7057 22.4778L30.6719 17.8874L33.4869 17.4266L33.8627 21.0293L35.3659 17.166L37.4077 18.3439L35.5315 22.3857L38.3235 26.6002L35.9073 27.1028L34.1535 23.8155L34.7569 26.9732L31.808 27.4613Z" fill="#F39200"/>
<path d="M39.5658 26.3669L38.4023 22.0688L39.6349 16.7383L42.028 17.2595L45.1152 16.937L45.1339 19.6123L41.8034 19.5187L41.4967 20.8074L44.6357 20.77L44.7048 22.698L41.2879 22.6059L41.1569 23.7333L44.5349 23.7348L44.545 26.5915L39.5658 26.3669Z" fill="#F39200"/>
<path d="M47.9367 26.0569L46.2305 25.157L46.3572 22.257L47.6603 21.0763L46.3269 20.103L46.5213 17.3844L47.8532 16.0684L51.129 16.7998L51.4069 19.9748L50.0275 21.3801L50.6337 22.0785L51.2183 21.0101L52.4609 22.0526L52.1614 22.9151L53.0671 23.5746L53.1866 24.9453L52.0362 25.373L51.3623 24.5954L50.854 25.5731L47.9367 26.0569ZM50.0664 23.3874L49.0124 22.414L48.17 23.1656L48.5674 24.2455L49.6589 24.247L50.0664 23.3874ZM48.854 20.0511L49.764 19.0993L49.5091 18.3952L48.3687 18.1073L47.8835 19.216L48.854 20.0511Z" fill="#F39200"/>
<path d="M11.3185 40.834L10.3105 34.7692L10.8044 30.1543L12.7353 30.939L14.9398 31.0298L17.7447 38.9578L15.1385 39.7872L13.6684 36.379L13.1601 36.5892L13.8426 39.6159L11.3185 40.834ZM13.7591 34.8037L13.1875 33.0543L12.2861 33.024L12.3998 34.9333L13.7591 34.8037Z" fill="#F39200"/>
<path d="M20.9898 39.9952L19.3138 39.4106L18.3533 35.6222L17.3008 30.9281L20.84 29.9648L23.1871 31.4436L23.3239 34.5336L22.2713 35.3889L23.8509 35.7115L23.7558 39.0636L20.9898 39.9952ZM21.3123 33.8468L21.2706 32.8086L20.4628 32.2975L19.5456 32.62L20.1244 34.5322L21.3123 33.8468ZM21.9041 37.7101L21.7717 36.7525L20.2684 36.4718L20.1777 37.9332L20.9682 38.2399L21.9041 37.7101Z" fill="#F39200"/>
<path d="M28.6255 39.0384L28.9567 36.7389L27.6737 35.5352L27.5427 38.9261L25.6046 38.9967L25.8753 34.7778L25.3008 29.7136L27.3642 29.8576L29.8466 29.25L31.1929 31.0873L30.7378 34.2868L29.2893 34.9232L30.7681 35.754L30.9841 39.0485L28.6255 39.0384ZM29.1568 33.2184L29.3383 32.0204L28.6961 31.3465L27.5441 31.8951L27.7068 33.6979L29.1568 33.2184Z" fill="#F39200"/>
<path d="M34.9975 38.6977L32.4071 37.7214L31.9766 32.4183L32.8765 29.4017L36.2545 28.6875L38.3337 31.9474L38.6894 36.0123L37.2668 38.4515L34.9975 38.6977ZM36.5914 35.5904L36.3683 33.0403L35.5158 31.6119L34.4878 32.041L34.4575 36.3751L35.6613 36.5911L36.5914 35.5904Z" fill="#F39200"/>
<path d="M39.9183 38.4202L39.5684 31.7218L40.2408 28.2891L44.7045 28.7369L46.7693 36.7888L44.1185 37.4641L42.8513 33.9767L42.3315 34.1567L42.8355 37.2179L39.9183 38.4202ZM43.0328 32.4101L42.5648 30.6303L41.6663 30.5468L41.6677 32.4605L43.0328 32.4101Z" fill="#F39200"/>
<path d="M48.3722 37.2007L47.252 31.9422L47.9676 27.7535L51.1512 27.1387L53.2995 31.1445L53.2059 34.8623L50.5291 37.2612L48.3722 37.2007ZM51.2563 34.0156L51.2549 31.503L50.0079 30.0055L49.5212 30.0833L49.2491 32.151L49.7257 34.8753L51.2563 34.0156Z" fill="#F39200"/>
</svg>
